PathFileType	4	(X/Y/Z)	C:/Users/beibeiliu/ov580/test_trc\sequence.12_training_dense_left.trc
DataRate	CameraRate	NumFrames	NumMarkers	Units	OrigDataRate	OrigDataStartFrame	OrigNumFrames
120	120	13	19	mm	120	82	324
Frame#	Time	ThumbCMC			ThumbMCP			ThumbIP			ThumbTip			IndexMCP			IndexPIP			IndexTip			MiddleMCP			MiddlePIP			MiddleTip			RingMCP			RingPIP			RingTip			PinkyMCP			PinkyPIP			PinkyTip			BackHand1			BackHand2			BackHand3	
		X0	Y0	Z0	X1	Y1	Z1	X2	Y2	Z2	X3	Y3	Z3	X4	Y4	Z4	X5	Y5	Z5	X6	Y6	Z6	X7	Y7	Z7	X8	Y8	Z8	X9	Y9	Z9	X10	Y10	Z10	X11	Y11	Z11	X12	Y12	Z12	X13	Y13	Z13	X14	Y14	Z14	X15	Y15	Z15	X16	Y16	Z16	X17	Y17	Z17	X18	Y18	Z18	
81	0.675	-287.8	-20.1523	18.7517	-284.849	6.66108	24.0057	-285.864	28.4897	21.4581	-286.565	46.5642	23.4791	-253.647	1.81728	-35.3374	-243.303	17.7589	-50.1243	-233.048	39.1367	-59.9885	-230.503	-10.8657	-38.5002	-215.437	1.16588	-55.4317	-193.68	13.6306	-64.2219	-214.715	-22.4037	-23.4944	-198.016	-13.7582	-36.2277	-183.295	2.85583	-50.1224	-198.944	-29.3533	-3.98227	-184.207	-22.4001	-5.88833	-164.701	-15.4721	-5.59158	-238.194	-48.8457	-1.50698	-250.5	-63.6144	13.3055	-267.782	-42.8843	-1.63005	
82	0.683333	-280.949	-18.8781	17.2496	-278.759	4.64412	24.426	-280.11	30.937	21.6773	-280.926	49.3513	20.8044	-249.879	5.21582	-36.806	-241.675	22.7218	-50.1721	-229.678	41.3694	-58.739	-225.756	-9.33886	-35.8805	-207.762	6.45868	-55.7793	-189.049	20.7789	-64.9012	-208.717	-17.8515	-25.0431	-191.404	-8.13275	-36.0736	-180.632	8.16111	-48.68	-196.824	-27.1695	-1.27868	-178.186	-18.844	-3.5823	-162.204	-9.39886	-4.77542	-233.891	-42.4603	-5.01077	-247.225	-60.5381	11.0788	-261.649	-43.4138	-1.96301	
83	0.691667	-273.102	-19.6547	18.6229	-275.506	8.96568	24.2666	-274.376	30.9608	21.5536	-277.983	52.1532	22.0848	-243.708	9.16516	-34.9745	-234.217	27.936	-49.476	-226.743	47.1582	-58.3269	-214.808	-4.36108	-38.5305	-199.678	9.84748	-52.6966	-184.118	25.6875	-62.2008	-202.715	-13.0342	-23.8406	-185.603	-2.00397	-35.8602	-170.518	12.9877	-46.6732	-187.62	-22.6691	0.503344	-170.961	-13.9165	-0.308335	-154.891	-0.145841	-6.32631	-223.176	-39.533	-3.20719	-235.488	-58.0728	12.2982	-253.845	-38.4496	-3.94582	
84	0.7	-266.658	-14.4689	14.5935	-269.42	12.3619	22.4795	-274.852	33.9149	21.8306	-274.898	52.6116	23.6263	-236.9	12.7543	-34.8646	-226.228	35.4883	-49.093	-223.799	52.7823	-56.6706	-210.359	4.09652	-38.7201	-194.566	15.0026	-51.2709	-179.735	34.8254	-63.1992	-193.211	-7.60622	-24.0992	-178.009	7.94235	-37.72	-165.196	22.0533	-46.9122	-179.262	-14.8499	-2.98173	-163.078	-6.6914	-0.101502	-148.953	6.29967	-5.93993	-214.36	-36.7906	-5.52542	-229.352	-54.9926	12.0946	-246.747	-35.0923	-5.35112	
85	0.708333	-260.608	-14.4528	15.6697	-260.809	13.0931	21.4136	-264.719	33.7555	21.8116	-270.255	54.6062	22.5186	-228.471	17.9017	-35.7377	-222.764	35.7113	-45.9735	-217.536	57.9562	-54.9752	-204.952	6.93688	-37.073	-189.493	24.5671	-52.7233	-175.782	40.5363	-61.4141	-184.849	-3.00583	-23.432	-173.873	13.409	-36.8119	-157.046	28.0615	-44.6084	-168.81	-10.8189	-0.257437	-157.715	0.29349	-1.07436	-138.376	13.8302	-2.70414	-207.158	-33.371	-2.88556	-220.485	-49.4305	7.92987	-239.961	-33.9746	-3.7549	
86	0.716667	-253.031	-14.9538	14.4184	-258.187	13.7041	20.6328	-265.512	32.7609	21.5959	-268.211	57.6909	20.7903	-223.486	19.2568	-35.11	-222.33	41.5682	-49.1126	-216.009	64.2188	-56.4937	-197.075	9.37063	-35.1709	-186.529	26.8887	-50.5264	-168.645	48.3637	-63.1121	-181.966	4.03926	-24.1167	-165.52	20.6091	-36.4763	-155.708	32.9577	-42.9962	-167.369	-4.1579	-2.73203	-152.213	10.5611	-4.1297	-136.555	19.7932	-2.03501	-201.246	-29.8039	-1.98171	-213.402	-46.6747	5.53093	-233.267	-31.4791	-7.06196	
87	0.725	-249.884	-13.3957	13.6217	-257.057	14.3816	19.8087	-258.886	34.8086	18.6179	-268.905	54.5906	20.5661	-221.275	22.7606	-38.6766	-218.503	42.3332	-49.7842	-215.866	65.6423	-57.8999	-196.304	15.3817	-40.2019	-185.885	32.5273	-54.118	-172.141	51.2712	-62.5086	-176.475	6.60729	-24.7981	-166.437	24.0916	-37.4723	-154.569	41.4752	-45.8857	-164.098	0.428964	-3.82075	-146.76	14.3817	-3.07203	-134.702	27.1217	-2.73169	-195.558	-27.12	-5.74463	-206.814	-47.188	8.22786	-226.654	-29.8728	-7.91272	
88	0.733333	-245.5	-11.3556	10.6861	-252.11	13.183	17.4925	-262.008	37.0262	15.8063	-264.299	57.0395	17.0729	-218.965	21.7762	-38.3661	-219.078	46.3053	-53.7543	-214.35	64.2134	-60.2577	-189.717	17.2519	-42.5118	-180.123	35.7127	-56.568	-171.888	53.7481	-65.821	-173.866	9.13779	-25.0789	-164.884	26.7755	-38.5978	-153.288	43.7358	-46.6708	-160.524	4.04604	-6.54086	-147.648	17.5793	-6.33554	-132.99	30.203	-3.83981	-194.046	-25.1747	-7.45381	-200.315	-44.238	4.97526	-222.061	-24.6521	-11.1964	
89	0.741667	-240.39	-11.2862	8.81791	-248.74	13.2414	14.1308	-256.128	35.5135	12.7553	-264.324	51.3314	14.8883	-217.28	22.5224	-42.1337	-217.354	45.1945	-56.9515	-218.534	66.6199	-66.3531	-188.567	18.0437	-46.0749	-181.814	37.03	-61.3342	-169.085	55.8179	-70.5001	-173.265	12.4263	-31.6185	-160.722	28.4646	-43.411	-154.2	47.3677	-51.6493	-157.139	4.74599	-6.6835	-144.176	22.3674	-9.19984	-132.515	40.1487	-10.614	-186.81	-22.6626	-9.04398	-194.19	-43.1894	3.64106	-218.071	-25.4222	-13.637	
90	0.75	-240.307	-13.2239	7.59815	-245.099	13.2429	11.5603	-259.012	35.4634	9.7816	-262.917	54.1278	8.98592	-214.443	19.4919	-45.475	-216.245	38.8183	-60.5839	-216.35	64.1602	-71.0824	-189.421	15.8404	-46.0821	-180.27	32.896	-63.5054	-168.123	56.8995	-75.971	-173.168	12.1332	-33.8204	-160.111	30.2063	-48.4589	-149	51.2991	-57.7419	-151.272	10.3277	-10.7811	-143.855	24.5979	-14.9388	-133.496	41.2255	-15.4645	-188.161	-19.7843	-12.0109	-189.229	-38.5835	1.71729	-216.374	-27.0099	-15.2707	
91	0.758333	-238.245	-12.5058	4.60369	-247.791	12.4313	9.01762	-257.533	32.0641	7.39748	-262.271	50.4303	6.07298	-217.451	21.3716	-52.2236	-216.008	38.2959	-65.3693	-218.192	60.1209	-75.7663	-190.927	14.9873	-50.3429	-180.145	35.4617	-71.2529	-168.863	55.3534	-81.7707	-168.824	15.205	-41.5293	-158.082	30.1981	-50.7371	-149.838	49.5226	-59.8003	-155.033	10.3218	-14.8615	-140.931	27.8454	-16.4039	-129.065	45.4031	-18.3488	-184.941	-18.8543	-16.1256	-188.628	-37.6738	-2.33155	-211.424	-24.0344	-16.5283	
92	0.766667	-236.641	-12.5257	4.41174	-243.602	11.8365	6.98538	-257.202	33.6528	1.25521	-260.705	52.6983	-0.735643	-215.525	17.2912	-51.5893	-217.798	35.786	-71.0674	-218.193	54.1884	-80.2326	-186.767	13.7269	-53.5642	-178.967	31.7117	-72.4669	-172.183	54.4179	-87.9298	-168.155	14.024	-41.9887	-158.94	31.7956	-56.3707	-155.077	47.5671	-66.2797	-152.174	12.6264	-18.132	-142.473	29.2949	-22.0841	-132.578	49.2565	-25.934	-181.074	-18.2917	-15.6442	-189.7	-38.7566	0.579081	-208.103	-26.5273	-13.7343	
93	0.775	-235.606	-12.1855	3.86477	-246.744	14.8166	3.00108	-256.029	31.4203	0.577843	-267.384	50.2897	-2.07078	-220.558	13.1355	-53.5118	-221.687	29.9501	-72.8552	-223.776	51.7831	-87.3899	-190.751	13.7555	-59.9843	-183.452	27.4596	-76.5265	-172.732	49.2985	-89.9983	-169.177	14.6658	-46.4626	-163.275	28.926	-58.8893	-159.44	48.4805	-73.3804	-155.821	14.4327	-24.2107	-145.184	31.4457	-27.998	-135.608	50.8526	-31.0351	-185.907	-18.8034	-18.9981	-191.377	-35.1227	-0.767304	-211.069	-27.0302	-16.1429	
